<?xml version="1.0" encoding="UTF-8" standalone="no"?>
<svg width="226px" height="30px" viewBox="0 0 226 30" version="1.1" xmlns="http://www.w3.org/2000/svg" xmlns:xlink="http://www.w3.org/1999/xlink">
    <!-- Generator: Sketch 3.8.2 (29753) - http://www.bohemiancoding.com/sketch -->
    <title>header_logo</title>
    <desc>Created with Sketch.</desc>
    <defs></defs>
    <g id="Home" stroke="none" stroke-width="1" fill="none" fill-rule="evenodd">
        <g id="home" transform="translate(-23.000000, -18.000000)">
            <g id="header">
                <g id="header_logo" transform="translate(23.000000, 18.000000)">
                    <path d="M81.0002053,11 C82.6564396,11 84,12.3435144 84,14.0003079 C84,15.6564856 82.6564396,17 81.0002053,17 C79.3435604,17 78,15.6566909 78,14.0003079 C78,12.3433091 79.3435604,11.0002053 81.0002053,11" id="Fill-55" fill="#DC2A1B"></path>
                    <path d="M79.0032122,4.3388703 C82.3293019,4.3388703 85.3272325,5.75931387 87.4334362,8.0306561 C88.004,8.64529909 88.4539745,9.39130837 88.8260563,10.1422639 C88.8659403,10.2381337 88.9070503,10.3280388 88.9509731,10.4057239 L88.9323654,10.4628966 C87.0638065,7.29701242 83.6373219,5.17558489 79.7208346,5.17558489 C75.5853824,5.17536667 71.9969819,7.53952363 70.2103546,11 L68.9368814,10.2789401 C70.9160767,6.73394125 74.6825485,4.3388703 79.0032122,4.3388703 L79.0032122,4.3388703 Z M77.1440293,0 C81.6794028,0 85.7553537,1.98707894 88.564611,5.14343433 C89.0096811,5.64234986 89.4466013,6.20898523 89.785146,6.78442199 L89.7906274,6.79416899 L89.8002918,6.81024427 L89.8010852,6.81148083 L89.8098842,6.82733789 L89.816808,6.83890336 L89.8194765,6.8438496 C89.88143,6.95397617 89.9415084,7.07108566 90,7.19932419 C87.4248535,3.58151376 83.2186488,1.22455795 78.4677722,1.22455795 C73.1126503,1.22419425 68.4499079,4.21863304 66.0343693,8.63686139 L64,7.48547869 C66.6880187,2.9998942 71.5692934,0.000436432889 77.1440293,0 L77.1440293,0 Z M78.0693655,2.243556 C81.7625605,2.243556 85.1093493,3.74299393 87.5446496,6.16963353 C88.2481359,6.87105392 88.7764358,7.67169005 89.2178277,8.56775951 C86.9323266,5.37001574 83.20884,3.28772169 79.0032122,3.28772169 C74.292436,3.28750347 70.1858329,5.89948157 68.0279171,9.76467671 L66.4788625,8.88839221 C68.8328081,4.90936082 73.1424371,2.243556 78.0693655,2.243556 L78.0693655,2.243556 Z" id="Fill-56" fill="#D8232A"></path>
                    <path d="M79.3541443,25.4280634 C76.4620996,26.917053 73.2246054,27.0366983 70.3841804,26.0236171 C69.6148986,25.7495091 68.8921522,25.3090512 68.2347955,24.8289225 C68.1574719,24.7641411 68.0820548,24.7053383 68.0089681,24.658071 L68,24.599831 C71.0312979,26.4893967 74.953265,26.782707 78.3586821,25.0293161 C81.1258792,23.6043343 82.9888489,21.1187929 83.7072172,18.3260143 L85.2039059,17.8431425 C84.5022735,20.9985849 82.4549982,23.8320191 79.3541443,25.4280634 L79.3541443,25.4280634 Z M82.8985321,28.3313434 C78.9552392,30.3618669 74.5286559,30.4765182 70.6838006,29.0158045 C70.0749565,28.7848842 69.4431625,28.4936137 68.8933527,28.1494488 L68.8841021,28.1433294 L68.868708,28.1335524 L68.8675075,28.1327083 L68.8526783,28.1233533 L68.8413093,28.1163898 L68.8370724,28.1135763 C68.7343979,28.0464033 68.6298874,27.9728296 68.5221993,27.888494 C72.3686788,29.8500157 77.0730622,29.9971633 81.2036972,27.8703468 C85.6040116,25.604331 88.2777142,21.3129967 88.6734416,16.7244132 L90.9185101,16 L91,16.0028135 C90.6563159,21.0685715 87.7454169,25.8362361 82.8985321,28.3313434 L82.8985321,28.3313434 Z M81.0972095,26.8145702 C77.8863372,28.4678699 74.3103138,28.6752269 71.1144119,27.675932 C70.1910478,27.3862089 69.3759368,26.9338638 68.5940855,26.3599744 C72.0021154,28.0902944 76.1648803,28.2162701 79.8211225,26.3338789 C83.3905787,24.4953788 85.6792873,21.1558612 86.3134117,17.4856133 L88.1213721,16.9024392 C87.5506603,21.0033679 85.0611927,24.7739181 81.0972095,26.8145702 L81.0972095,26.8145702 Z" id="Fill-57" fill="#004F92"></path>
                    <path d="M17.0391664,13.971524 L16.8631494,13.971524 L15.3675052,17.2287013 L13.8425962,20.3998595 C13.6274644,20.8761278 13.4071934,21.2049052 13.1823543,21.3858441 C12.9580148,21.5664352 12.6301779,21.6571133 12.2000571,21.6571133 L10.2352486,21.6569046 C9.74638403,21.6569046 9.40912532,21.5664352 9.22340106,21.3858441 C9.03781955,21.204488 8.8276128,20.8763364 8.5931377,20.3998595 L7.27329627,17.8286783 L5.57215622,14.3144873 L5.39628205,14.3144873 L5.39628205,23.4571835 C5.39628205,23.7234459 5.34731708,23.8809503 5.24981541,23.9286536 C5.15188548,23.9758006 4.98579003,24 4.75110079,24 L0.674517412,23.9997914 C0.459456993,23.9997914 0.293147409,23.9761483 0.176016925,23.9286536 C0.0590291957,23.8807417 0,23.7236545 0,23.4573226 L0,6.25693732 C0,5.36204804 0.166309584,4.76200145 0.49871462,4.45728432 C0.831119656,4.15235857 1.36852088,4 2.11191759,4 L4.36965941,4 C4.99549737,4 5.44510426,4.10980109 5.71905112,4.32898603 C5.99256972,4.54796235 6.25659511,4.90476373 6.51091315,5.40029415 L8.85673482,10.1425328 L11.1445266,14.8285844 L11.2618712,14.8285844 L13.5490205,10.1996933 L15.8954132,5.48561773 C16.149303,4.99050454 16.4330286,4.6191001 16.7458048,4.37154351 C17.0584383,4.12412599 17.5862749,4 18.3296716,4 L20.1477994,4 C20.4605756,4 20.7440157,4.02385166 20.9979769,4.07134637 C21.2522949,4.11939738 21.4720662,4.21466495 21.6581474,4.35735768 C21.843943,4.4998418 21.985556,4.70977814 22.0834859,4.98598454 C22.1812017,5.26233002 22.2299526,5.61927047 22.2299526,6.05750128 L22.2299526,23.4571835 C22.2299526,23.7234459 22.1812017,23.8809503 22.0834859,23.9286536 C21.985556,23.9758006 21.8095391,24 21.5555779,24 L17.684419,23.9997914 C17.4693586,23.9997914 17.3081168,23.9761483 17.2002654,23.9286536 C17.0927709,23.8807417 17.0391664,23.7236545 17.0391664,23.4573226 L17.0391664,13.971524 Z M32.1716255,23.4279774 C32.1716255,23.6568281 32.1376498,23.8096039 32.069056,23.8856789 C32.0006763,23.9616148 31.8003911,24 31.4679146,24 L27.3033942,23.9997914 C26.8540014,23.9997914 26.6288054,23.8096039 26.6288054,23.4283946 L26.6288054,5.88581104 C26.6288054,5.37108803 26.74615,4.92875446 26.9810534,4.55721096 C27.2155998,4.18545883 27.7333009,4 28.5351558,4 L35.9843262,4 C37.1376439,4 38.1594129,4.1620244 39.048848,4.48565597 C39.938283,4.8095657 40.686462,5.26233002 41.2922429,5.84318402 C41.8982379,6.42431618 42.3581232,7.10516635 42.6709708,7.88573455 C42.9835329,8.66671998 43.1397782,9.51432317 43.1397782,10.4289613 C43.1397782,10.7332612 43.1105848,11.1143315 43.0519125,11.5716158 C42.9932402,12.0281352 42.8710419,12.5049598 42.6853176,13.0001426 C42.4999503,13.4952557 42.2306429,13.9953757 41.8790374,14.5003633 C41.5271463,15.0043774 41.0527,15.4573504 40.4564123,15.8573351 C39.860196,16.2569026 39.1172276,16.5809514 38.2277925,16.8287166 C37.3383575,17.0761341 36.2773309,17.200121 35.0459262,17.200121 L32.1716255,17.1997038 L32.1716255,23.4279774 Z M37.421084,10.8000876 C37.421084,10.6092743 37.391962,10.3859866 37.3332896,10.1289033 C37.2746173,9.87147223 37.172262,9.63831008 37.025153,9.42893005 C36.8784722,9.21906325 36.6684082,9.03826349 36.3948896,8.88569631 C36.1212996,8.73312912 35.7690517,8.65747138 35.3389308,8.65747138 L32.1716255,8.65747138 L32.1716255,12.9715623 L35.3389308,12.9715623 C36.0230128,12.9715623 36.5413562,12.7476487 36.8933901,12.3001693 C37.2454953,11.8523422 37.421084,11.3524309 37.421084,10.8000876 L37.421084,10.8000876 Z M61,7.88552594 C61,8.32375674 60.7944328,8.5431503 60.3839408,8.5431503 L55.3689573,8.54294168 L55.3689573,23.4000229 C55.3689573,23.6282479 55.3349816,23.7859609 55.266602,23.8712845 C55.1980082,23.9568167 54.9978657,24 54.6652465,24 L50.5009402,23.9997914 C50.0513333,23.9997914 49.8263514,23.7999381 49.8263514,23.4000229 L49.8263514,8.54294168 L44.9287126,8.54294168 C44.5182206,8.54294168 44.3126534,8.32375674 44.3126534,7.88573455 L44.3126534,4.68571786 C44.3126534,4.36187768 44.3569788,4.16696163 44.4449873,4.10027433 C44.5325674,4.03330888 44.6940234,4 44.9287126,4 L60.3839408,4 C60.61863,4 60.7800859,4.03351749 60.8678802,4.10027433 C60.9558887,4.16696163 61,4.36208629 61,4.68592648 L61,7.88552594 Z" id="Fill-58" fill="#D8232A"></path>
                    <path d="M101.072613,20.0770794 C102.299692,20.0770794 103.234149,19.7619802 103.876837,19.1308601 C104.519312,18.4994565 104.938055,17.5628781 105.132923,16.3202741 L99.3785901,16.3200614 C99.1643844,16.3200614 99.0081913,16.296172 98.9108639,16.2473299 C98.8136787,16.198275 98.7649083,16.0482042 98.7649083,15.7957703 L98.7649083,12.6214556 C98.7649083,12.3685255 98.8088443,12.2085302 98.896503,12.1404064 C98.9840194,12.0724953 99.1446203,12.0387524 99.3785901,12.0387524 L105.074128,12.0385397 C104.976943,11.4364839 104.811508,10.931758 104.577538,10.5240076 C104.344137,10.1161153 104.056562,9.78620038 103.716023,9.53376654 C103.375199,9.28119093 102.990937,9.10155955 102.562242,8.99522684 C102.133831,8.88797259 101.695537,8.83487713 101.247717,8.83487713 C100.897438,8.83466446 100.57581,8.84451796 100.283827,8.86379962 C99.9918452,8.88315217 99.7046262,8.92228261 99.4223127,8.98055293 C99.1399992,9.03882325 98.8475193,9.11176749 98.5460816,9.19881853 C98.244004,9.28579868 97.8985592,9.38809074 97.508823,9.50463138 C97.1581883,9.62095936 96.9195264,9.6452741 96.7931927,9.57736295 C96.6666457,9.50888469 96.5350511,9.29104442 96.3990486,8.92228261 L95.4931714,6.53369565 C95.4153947,6.33981569 95.3619322,6.17939509 95.3329259,6.05342628 C95.3031376,5.92681947 95.293611,5.82034499 95.3031376,5.73272684 C95.3133751,5.64553403 95.3619322,5.57258979 95.4498041,5.51453214 C95.5371073,5.45640359 95.6586066,5.37849716 95.8145865,5.28137996 C96.6714801,4.83449905 97.601316,4.5096172 98.6040941,4.30581285 C99.6068723,4.10165406 100.673208,4 101.80296,4 C103.28292,4 104.601923,4.2280482 105.760681,4.68442817 C106.919652,5.1403828 107.893211,5.80085066 108.681783,6.66469754 C109.470569,7.52875709 110.069108,8.58230151 110.478039,9.82533081 C110.88754,11.0675803 111.09165,12.4754253 111.09165,14.0483696 C111.09165,15.562689 110.921167,16.9853497 110.580557,18.3154301 C110.239378,19.6452977 109.694301,20.805742 108.944617,21.7957703 C108.194933,22.7857987 107.216327,23.5674858 106.009154,24.1405482 C104.801839,24.7130435 103.331477,25 101.598352,25 C100.332385,24.9996456 99.1008976,24.8687854 97.9031803,24.606569 C96.705534,24.3443526 95.5227464,23.8640832 94.3543197,23.1647684 C94.140114,23.0482278 94.0232358,22.9126181 94.003685,22.7570888 C93.9841342,22.6011342 94.0423601,22.3784735 94.1787891,22.0873346 L95.4349455,19.4658081 C95.5713745,19.1354679 95.7025426,18.9510161 95.8293029,18.9124527 C95.9558499,18.8732514 96.1654344,18.9124527 96.4572745,19.0289934 C97.0803406,19.2620747 97.7572958,19.4947306 98.4872159,19.7278828 C99.2177759,19.9605388 100.079291,20.0772921 101.072613,20.0770794 L101.072613,20.0770794 Z M126.12927,13.8439981 C126.635955,14.0192344 127.054129,14.2181474 127.385213,14.4414461 C127.716297,14.6646739 127.989155,14.9170369 128.203432,15.1986059 C128.417637,15.480104 128.587907,15.8010161 128.714454,16.1600662 C128.841001,16.5189745 128.962927,16.9126181 129.079236,17.3398629 L130.89092,24.0963847 C130.929452,24.1939981 130.934287,24.3154301 130.905281,24.4611059 C130.875848,24.6063563 130.734798,24.6793006 130.481419,24.6793006 L126.10005,24.6793006 C126.002723,24.6793006 125.89594,24.6598062 125.779062,24.6212429 C125.66197,24.5822543 125.574311,24.4657136 125.516086,24.271621 L123.675538,18.1550803 C123.539465,17.6887051 123.368768,17.305482 123.164445,17.0044896 C122.959908,16.7036389 122.716696,16.4705577 122.434098,16.3056002 C122.151785,16.1404301 121.815866,16.0287098 121.426699,15.970794 C121.036963,15.9117439 120.589356,15.8831758 120.082742,15.8831758 L118.768359,15.8831758 L118.797579,24.2129253 C118.797579,24.426725 118.758904,24.5581522 118.680487,24.606569 C118.602924,24.6547732 118.466282,24.6793006 118.271627,24.6793006 L113.802386,24.6793006 C113.627424,24.6793006 113.495829,24.6549858 113.408384,24.606569 C113.320725,24.5579395 113.276576,24.4269376 113.276576,24.213138 L113.276576,4.75694707 C113.276576,4.54314745 113.320725,4.41271267 113.408384,4.36372873 C113.495829,4.31509924 113.627424,4.29092628 113.802386,4.29092628 L118.300846,4.29057183 C118.496141,4.29057183 118.63193,4.31524102 118.710133,4.36372873 C118.78791,4.41235822 118.807461,4.54357278 118.768359,4.75715974 L118.768359,11.9800567 L120.170756,11.9800567 C120.462596,11.9800567 120.769152,11.9612004 121.090567,11.9222117 C121.411982,11.8832231 121.718681,11.7813563 122.010521,11.616328 C122.30293,11.4510161 122.570527,11.2086484 122.814023,10.8883743 C123.057235,10.5674622 123.257151,10.1259688 123.412704,9.56311437 L124.756519,4.64019376 C124.795408,4.4463138 124.878232,4.32991493 125.004566,4.29092628 C125.131113,4.25257561 125.243228,4.23286862 125.340555,4.23286862 L129.66384,4.23286862 C129.917006,4.23286862 130.058269,4.30581285 130.087488,4.45134688 C130.116495,4.59638469 130.11166,4.71817108 130.072772,4.81564272 L128.670518,10.0289225 C128.475863,10.8443526 128.159496,11.5676985 127.721131,12.1991021 C127.283264,12.8294423 126.75262,13.3297732 126.129128,13.6987476 L126.12927,13.8439981 Z M142.978288,20.0770794 C143.971185,20.0770794 144.818196,19.9607514 145.51911,19.7278828 C146.220379,19.4943762 146.882405,19.2620747 147.505542,19.0289934 C147.797524,18.9122401 148.006967,18.8734641 148.133514,18.9124527 C148.260274,18.9510161 148.391442,19.1356805 148.527871,19.4658081 L149.78417,22.0871219 C149.92003,22.3783318 149.978682,22.6013469 149.959131,22.7570888 C149.939794,22.9126181 149.822702,23.0482278 149.608639,23.1647684 C148.440426,23.8638705 147.271786,24.3443526 146.103359,24.606569 C144.935074,24.868431 143.718091,25 142.45191,25 C140.719141,24.9996456 139.253471,24.7327505 138.05618,24.1988185 C136.85832,23.6645321 135.884549,22.9316871 135.135078,21.9997164 C134.38518,21.0675331 133.839891,19.9607514 133.499067,18.6793006 C133.158528,17.3977079 132.988045,15.9997164 132.988045,14.4852552 C132.988258,12.9120274 133.221375,11.4855388 133.688958,10.2037335 C134.156685,8.92228261 134.813663,7.8201087 135.660887,6.89777883 C136.508254,5.97523629 137.52518,5.26188563 138.712944,4.75715974 C139.900993,4.25257561 141.215304,4 142.65666,4 C143.786198,4 144.842368,4.09201323 145.825595,4.27667769 C146.809463,4.46077505 147.729203,4.79636106 148.586097,5.28137996 C148.74229,5.3782845 148.863789,5.45640359 148.951519,5.51453214 C149.038751,5.57216446 149.087521,5.64574669 149.097617,5.73272684 C149.107285,5.82013233 149.097617,5.92703214 149.068539,6.05342628 C149.038751,6.17904064 148.985573,6.33981569 148.907583,6.53390832 L147.885396,8.92228261 C147.748754,9.29061909 147.617586,9.50923913 147.490612,9.57736295 C147.364279,9.64491966 147.125901,9.62117202 146.775195,9.50463138 C146.385886,9.38787807 146.03518,9.28622401 145.723647,9.19881853 C145.412327,9.11176749 145.105344,9.03882325 144.80348,8.98055293 C144.501971,8.92228261 144.199893,8.88329395 143.898029,8.86379962 C143.596378,8.84437618 143.270057,8.83487713 142.919636,8.83487713 C141.71225,8.83466446 140.728809,9.31535917 139.969101,10.2766777 C139.209961,11.2373582 138.829823,12.6403828 138.829823,14.4852552 C138.830036,16.3104206 139.146475,17.698913 139.77928,18.6503781 C140.412442,19.6014887 141.478138,20.0772921 142.978288,20.0770794 L142.978288,20.0770794 Z M170.254565,24.067604 C170.254565,24.3005435 170.220297,24.4611059 170.152616,24.5478733 C170.084295,24.6354915 169.884379,24.6793006 169.553295,24.6793006 L165.405683,24.6793006 C164.95765,24.6793006 164.733775,24.4753544 164.733775,24.067604 L164.733988,9.00933365 L158.248883,9.00933365 L158.248883,24.067604 C158.248883,24.3005435 158.215042,24.4611059 158.146934,24.5478733 C158.078826,24.6354915 157.879266,24.6793006 157.547969,24.6793006 L153.400356,24.6793006 C152.952394,24.6793006 152.728306,24.4753544 152.728306,24.067604 L152.728306,6.21299622 C152.728306,5.57216446 152.845185,5.09210775 153.078941,4.77183365 C153.312697,4.45113422 153.828412,4.29092628 154.626866,4.29092628 L168.356005,4.29057183 C169.154672,4.29057183 169.670174,4.45134688 169.90393,4.77183365 C170.137686,5.09175331 170.254565,5.57258979 170.254565,6.21342155 L170.254565,24.067604 Z M189.440437,24.0091919 C189.440437,24.4562854 189.255237,24.6793006 188.885407,24.6793006 L179.858911,24.6793006 C178.690627,24.6793006 177.741027,24.5141304 177.011107,24.1842155 C176.280831,23.8536626 175.706251,23.4220227 175.287295,22.8878781 C174.868908,22.3541588 174.581334,21.7569943 174.42578,21.0968809 C174.269943,20.4365548 174.192166,19.7862949 174.192166,19.145534 L174.192379,9.82511815 C174.192379,9.12608696 174.289351,8.44144612 174.48422,7.77169187 C174.679301,7.10158318 174.995242,6.50959357 175.433606,5.99494329 C175.8719,5.48036389 176.451101,5.06779301 177.171352,4.75715974 C177.892172,4.4463138 178.768048,4.29092628 179.800614,4.29092628 L188.417895,4.29057183 C188.651651,4.29057183 188.80237,4.32509452 188.870691,4.39321834 C188.939012,4.46077505 188.972924,4.66032609 188.972924,4.99024102 L188.972924,8.28152174 C188.972924,8.53324669 188.933965,8.70366257 188.856401,8.79106805 C188.777985,8.87847353 188.6321,8.92228261 188.417895,8.92228261 L181.465631,8.92228261 C181.076108,8.92228261 180.764362,8.97573251 180.530961,9.08227788 C180.296991,9.18896503 180.121674,9.31996692 180.004796,9.47549622 C179.888344,9.63081285 179.810141,9.80583648 179.771395,9.99978733 C179.732507,10.1934546 179.712814,10.3879726 179.712814,10.5824905 L179.712956,11.8052457 L187.541237,11.8052457 C187.77542,11.8052457 187.925997,11.8444471 187.994247,11.9222117 C188.062426,11.999551 188.096622,12.2037098 188.096622,12.5338374 L188.096622,15.562689 C188.096622,16.0093573 187.911636,16.2328686 187.541024,16.2328686 L179.712956,16.232656 L179.712956,18.4168715 C179.712956,18.7862004 179.756536,19.0774102 179.844408,19.2912098 C179.932067,19.5045841 180.053993,19.6649338 180.209546,19.7714792 C180.365526,19.8781664 180.550156,19.9460775 180.764362,19.975638 C180.978354,20.0043478 181.212324,20.0194471 181.465631,20.0194471 L188.885621,20.0194471 C189.119377,20.0194471 189.269954,20.05319 189.338062,20.1213138 C189.406383,20.189225 189.440224,20.388138 189.440224,20.7183365 L189.440437,24.0091919 Z M197.729975,24.0963847 C197.729975,24.3296786 197.696134,24.4852079 197.628026,24.5629726 C197.559918,24.6400992 197.360358,24.6793006 197.029061,24.6793006 L192.881448,24.6793006 C192.433699,24.6793006 192.209398,24.4852079 192.209398,24.0965974 L192.209398,6.21299622 C192.209398,5.68891777 192.326277,5.23757089 192.560033,4.85902647 C192.793789,4.48026938 193.309504,4.29092628 194.107958,4.29092628 L201.527521,4.29057183 C202.676611,4.29057183 203.693963,4.4561673 204.579863,4.78608223 C205.465976,5.1164225 206.210968,5.57762287 206.814341,6.16975425 C207.418141,6.76195652 207.875985,7.45645085 208.187589,8.25217391 C208.498909,9.04853497 208.654675,9.91238185 208.654675,10.8445652 C208.654675,11.1549858 208.625456,11.5433837 208.56723,12.0096172 C208.508791,12.4752127 208.387078,12.9610822 208.201879,13.465879 C208.017248,13.9706049 207.749011,14.4804348 207.399017,14.9950142 C207.048524,15.5090265 206.576177,15.970794 205.981833,16.3785444 C205.387986,16.7860113 204.648184,17.1162098 203.762071,17.3687854 C202.876384,17.6209357 201.819788,17.7475425 200.593064,17.7475425 L197.729975,17.7475425 L197.729975,24.0963847 Z M202.958782,11.2231096 C202.958782,11.0285917 202.929776,10.8008979 202.871123,10.5388941 C202.812897,10.2762524 202.710664,10.038776 202.564424,9.82533081 C202.418469,9.61131853 202.208884,9.4270794 201.936453,9.27155009 C201.664164,9.11623346 201.313316,9.03882325 200.885047,9.03882325 L197.729975,9.03882325 L197.729975,13.4367439 L200.885047,13.4367439 C201.56641,13.4367439 202.082337,13.2084121 202.432972,12.7523157 C202.783678,12.2959357 202.958782,11.7861767 202.958782,11.2231096 L202.958782,11.2231096 Z M226,8.25196125 C226,8.69862949 225.795037,8.92228261 225.386176,8.92228261 L220.391339,8.92228261 L220.391339,24.067604 C220.391339,24.3005435 220.357285,24.4611059 220.289177,24.5478733 C220.220856,24.6354915 220.02158,24.6793006 219.690638,24.6793006 L215.54267,24.6793006 C215.095063,24.6793006 214.870549,24.4753544 214.870549,24.067604 L214.870762,8.92228261 L209.992448,8.92228261 C209.583729,8.92228261 209.379192,8.69884216 209.379192,8.25217391 L209.379406,4.99024102 C209.379406,4.66011342 209.422915,4.46112949 209.510787,4.39321834 C209.598019,4.32495274 209.758691,4.29092628 209.992448,4.29092628 L225.386389,4.29057183 C225.620359,4.29057183 225.780747,4.32509452 225.868192,4.39321834 C225.955922,4.46077505 225.999787,4.66032609 225.999787,4.99024102 L226,8.25196125 Z" id="Fill-59" fill="#004F92"></path>
                </g>
            </g>
        </g>
    </g>
</svg>